# xmcd
#
# Track frame offsets: 
#        150
#        13128
#        27586
#        38748
#        60691
#        79269
#        98000
#        116330
#        136325
#        149995
#        174142
#        191618
#        207518
#        228295
#
# Disc length: 3280 seconds
#
# Revision: 1
# Processed by: cddbd v1.5.1PL2 Copyright (c) Steve Scherf et al.
# Submitted via: ExactAudioCopy v0.95b3
#
DISCID=c20cce0e
DTITLE=Ernie Hawkins - Rags and Bones
DYEAR=2005
DGENRE=Blues
TTITLE0=Make Believe Stunt
TTITLE1=Avalon Blues
TTITLE2=The Boy was Kissing the Girl (and Playing the Guitar at the Sa
TTITLE2=me Time)
TTITLE3=TB Blues
TTITLE4=Potato Head Blues
TTITLE5=Texas Easy Street
TTITLE6=Guitar Chop Suey
TTITLE7=Statesboro Blues
TTITLE8=Can't Be Satisfied
TTITLE9=Singin' the Blues
TTITLE10=Elm Street Blues
TTITLE11=G Rag
TTITLE12=I am the Light of This World
TTITLE13=Massanga
EXTD=
EXTT0=
EXTT1=
EXTT2=
EXTT3=
EXTT4=
EXTT5=
EXTT6=
EXTT7=
EXTT8=
EXTT9=
EXTT10=
EXTT11=
EXTT12=
EXTT13=
PLAYORDER=
